<svg width="71" height="47" viewBox="0 0 71 47" fill="none" xmlns="http://www.w3.org/2000/svg">
<path d="M32.072 24.9999H0.84V0.423939H32.072V24.9999ZM10.824 46.2479H1.992V31.3999H10.056C11.592 31.3999 12.7013 31.1013 13.384 30.5039C14.152 29.9066 14.536 28.6693 14.536 26.7919V22.0559H32.072V26.6639C32.072 33.2346 30.1947 38.1413 26.44 41.3839C22.7707 44.6266 17.5653 46.2479 10.824 46.2479ZM70.947 24.9999H39.715V0.423939H70.947V24.9999ZM49.699 46.2479H40.867V31.3999H48.931C50.467 31.3999 51.5763 31.1013 52.259 30.5039C53.027 29.9066 53.411 28.6693 53.411 26.7919V22.0559H70.947V26.6639C70.947 33.2346 69.0697 38.1413 65.315 41.3839C61.6457 44.6266 56.4403 46.2479 49.699 46.2479Z" fill="#3FD7B2"/>
</svg>
